<svg id="Layer_1" data-name="Layer 1" xmlns="http://www.w3.org/2000/svg" viewBox="0 0 182.82 26.07"><defs><style>.cls-1{fill:#35b7f3;}</style></defs><title>bingegiving_logotype_tm</title><path class="cls-1" d="M345.42,663.45a5.16,5.16,0,0,1,1,3.26q0,3.5-2,4.88a8.16,8.16,0,0,1-4.76,1.38h-7.31a1.76,1.76,0,0,1-1.79-1.79v-17a1.76,1.76,0,0,1,1.79-1.79h7.4q5.58,0,5.58,5.23a4.21,4.21,0,0,1-2.44,3.94A5.93,5.93,0,0,1,345.42,663.45Zm-4.52-7a2.29,2.29,0,0,0-1.69-.6h-4.85v4.58h4.94a2.25,2.25,0,0,0,1.54-.59,2,2,0,0,0,.66-1.59A2.45,2.45,0,0,0,340.89,656.47Zm0.91,12.38a2.81,2.81,0,0,0,.78-2.14,2.41,2.41,0,0,0-.91-2.26,4.38,4.38,0,0,0-2.23-.53h-5.08v5.67h5.29A3,3,0,0,0,341.8,668.85Z" transform="translate(-330.54 -652.4)"/><path class="cls-1" d="M350.06,655.53a1.36,1.36,0,0,1-.41-1.13v-0.55a1.31,1.31,0,0,1,.43-1.13,3.26,3.26,0,0,1,2.81,0,1.36,1.36,0,0,1,.41,1.13v0.55a1.33,1.33,0,0,1-.42,1.14,2.53,2.53,0,0,1-1.43.3A2.29,2.29,0,0,1,350.06,655.53Z" transform="translate(-330.54 -652.4)"/><path class="cls-1" d="M352.72,672.46a1.78,1.78,0,0,1-2.49,0,1.73,1.73,0,0,1-.49-1.26v-12a1.74,1.74,0,0,1,.49-1.26,1.78,1.78,0,0,1,2.49,0,1.74,1.74,0,0,1,.49,1.26v12A1.73,1.73,0,0,1,352.72,672.46Z" transform="translate(-330.54 -652.4)"/><path class="cls-1" d="M369.87,658.93a8.91,8.91,0,0,1,1.13,4.85v7.42a1.73,1.73,0,0,1-.49,1.26,1.78,1.78,0,0,1-2.49,0,1.73,1.73,0,0,1-.49-1.26v-7.42a4.18,4.18,0,0,0-.67-2.51,2.65,2.65,0,0,0-2.29-.91,3.53,3.53,0,0,0-2.64,1,3.35,3.35,0,0,0-1,2.45v7.42a1.74,1.74,0,0,1-.49,1.26,1.78,1.78,0,0,1-2.49,0,1.73,1.73,0,0,1-.49-1.26v-12A1.74,1.74,0,0,1,358,658a1.79,1.79,0,0,1,2.49,0,1.74,1.74,0,0,1,.49,1.26v0.49a7,7,0,0,1,2-1.8,5.3,5.3,0,0,1,2.77-.75Q368.74,657.18,369.87,658.93Z" transform="translate(-330.54 -652.4)"/><path class="cls-1" d="M389.56,657.39a1.73,1.73,0,0,1,.49,1.27v12.89a6.2,6.2,0,0,1-2.19,5.23,8.79,8.79,0,0,1-5.55,1.69,13.64,13.64,0,0,1-2.39-.29,10.5,10.5,0,0,1-2.16-.58,1.9,1.9,0,0,1-1.42-1.68,1.48,1.48,0,0,1,.09-0.46,1.79,1.79,0,0,1,.59-1,1.44,1.44,0,0,1,.91-0.33,1.73,1.73,0,0,1,.55.09l1.43,0.54a6.74,6.74,0,0,0,2.39.51,5,5,0,0,0,3.2-.85,2.93,2.93,0,0,0,1.06-2.42v-1.39a5.77,5.77,0,0,1-1.93,1.62,5.57,5.57,0,0,1-2.77.72,6.89,6.89,0,0,1-3.69-1,7.2,7.2,0,0,1-2.62-2.85,8.79,8.79,0,0,1-1-4.14,9,9,0,0,1,.94-4.16,7.15,7.15,0,0,1,2.58-2.87,6.7,6.7,0,0,1,3.64-1,6.31,6.31,0,0,1,2.75.61,6.47,6.47,0,0,1,2.06,1.48v-0.32a1.74,1.74,0,0,1,.49-1.26,1.67,1.67,0,0,1,1.25-.51A1.69,1.69,0,0,1,389.56,657.39Zm-4.07,11a5,5,0,0,0,1.23-3.46,5,5,0,0,0-1.23-3.48,4,4,0,0,0-3.17-1.39,4,4,0,0,0-3.16,1.39,5.09,5.09,0,0,0-1.22,3.48,5,5,0,0,0,1.22,3.46,4,4,0,0,0,3.16,1.38A4.06,4.06,0,0,0,385.49,668.41Z" transform="translate(-330.54 -652.4)"/><path class="cls-1" d="M407.32,665.7a1.84,1.84,0,0,1-1.22.43h-9.56a4.37,4.37,0,0,0,1.59,2.68,4.45,4.45,0,0,0,2.81,1,6.22,6.22,0,0,0,1.85-.22,4.83,4.83,0,0,0,1.06-.46l0.54-.33a2.21,2.21,0,0,1,1-.26,1.42,1.42,0,0,1,1,.43,1.38,1.38,0,0,1,.44,1,1.81,1.81,0,0,1-.81,1.42,6.91,6.91,0,0,1-2.17,1.13,9,9,0,0,1-7-.55,7.07,7.07,0,0,1-2.79-2.79,8.14,8.14,0,0,1-1-4,8.88,8.88,0,0,1,1-4.37,7.4,7.4,0,0,1,2.75-2.88,7.11,7.11,0,0,1,3.65-1,6.76,6.76,0,0,1,3.61,1,7.79,7.79,0,0,1,2.71,2.81,7.55,7.55,0,0,1,1,3.82A1.49,1.49,0,0,1,407.32,665.7Zm-10.75-2.46h7.59V663a3,3,0,0,0-1.19-2.09,3.76,3.76,0,0,0-2.43-.87A3.6,3.6,0,0,0,396.57,663.24Z" transform="translate(-330.54 -652.4)"/><path class="cls-1" d="M428,662.39a1.72,1.72,0,0,1,.48,1.24v6.06a1.71,1.71,0,0,1-.89,1.54,11.39,11.39,0,0,1-6.14,1.74,10.47,10.47,0,0,1-9-5.13,10.19,10.19,0,0,1,0-10.31,10.47,10.47,0,0,1,9-5.13,10.07,10.07,0,0,1,4.91,1.14,1.55,1.55,0,0,1,.86,1.4,1.8,1.8,0,0,1-.47,1.24,1.49,1.49,0,0,1-1.16.53,2.33,2.33,0,0,1-.94-0.23,8.1,8.1,0,0,0-3.2-.66,6.42,6.42,0,0,0-3.37.93,6.84,6.84,0,0,0-2.44,2.5,6.92,6.92,0,0,0,2.44,9.35,6.41,6.41,0,0,0,3.37.93,11.09,11.09,0,0,0,1.71-.14,9.89,9.89,0,0,0,1.6-.37v-3.71h-2.69a1.71,1.71,0,0,1-1.24-.49,1.76,1.76,0,0,1,0-2.46,1.71,1.71,0,0,1,1.24-.49h4.68A1.64,1.64,0,0,1,428,662.39Z" transform="translate(-330.54 -652.4)"/><path class="cls-1" d="M432.49,655.53a1.36,1.36,0,0,1-.41-1.13v-0.55a1.31,1.31,0,0,1,.43-1.13,3.26,3.26,0,0,1,2.81,0,1.36,1.36,0,0,1,.41,1.13v0.55a1.33,1.33,0,0,1-.42,1.14,2.53,2.53,0,0,1-1.43.3A2.29,2.29,0,0,1,432.49,655.53Z" transform="translate(-330.54 -652.4)"/><path class="cls-1" d="M435.15,672.46a1.78,1.78,0,0,1-2.49,0,1.73,1.73,0,0,1-.49-1.26v-12a1.74,1.74,0,0,1,.49-1.26,1.78,1.78,0,0,1,2.49,0,1.74,1.74,0,0,1,.49,1.26v12A1.73,1.73,0,0,1,435.15,672.46Z" transform="translate(-330.54 -652.4)"/><path class="cls-1" d="M453,657.92a1.49,1.49,0,0,1,.46,1.12,2.24,2.24,0,0,1-.23.87l-5.42,11.93a1.8,1.8,0,0,1-.59.78,1.61,1.61,0,0,1-.88.32l-0.26,0a1.53,1.53,0,0,1-.91-0.3,2,2,0,0,1-.65-0.82l-5.39-11.93a2.28,2.28,0,0,1-.2-0.93,1.45,1.45,0,0,1,.49-1.06,1.68,1.68,0,0,1,1.22-.48,1.88,1.88,0,0,1,1,.29,1.79,1.79,0,0,1,.7.81l4,9.15,4-9.12a1.91,1.91,0,0,1,.64-0.84,1.37,1.37,0,0,1,.9-0.26A1.6,1.6,0,0,1,453,657.92Z" transform="translate(-330.54 -652.4)"/><path class="cls-1" d="M457,655.53a1.36,1.36,0,0,1-.41-1.13v-0.55a1.31,1.31,0,0,1,.43-1.13,3.26,3.26,0,0,1,2.81,0,1.36,1.36,0,0,1,.41,1.13v0.55a1.33,1.33,0,0,1-.42,1.14,2.53,2.53,0,0,1-1.43.3A2.29,2.29,0,0,1,457,655.53Z" transform="translate(-330.54 -652.4)"/><path class="cls-1" d="M459.71,672.46a1.78,1.78,0,0,1-2.49,0,1.73,1.73,0,0,1-.49-1.26v-12a1.74,1.74,0,0,1,.49-1.26,1.78,1.78,0,0,1,2.49,0,1.74,1.74,0,0,1,.49,1.26v12A1.73,1.73,0,0,1,459.71,672.46Z" transform="translate(-330.54 -652.4)"/><path class="cls-1" d="M476.89,658.93a8.91,8.91,0,0,1,1.13,4.85v7.42a1.73,1.73,0,0,1-.49,1.26,1.78,1.78,0,0,1-2.49,0,1.73,1.73,0,0,1-.49-1.26v-7.42a4.18,4.18,0,0,0-.67-2.51,2.65,2.65,0,0,0-2.29-.91,3.53,3.53,0,0,0-2.64,1,3.35,3.35,0,0,0-1,2.45v7.42a1.74,1.74,0,0,1-.49,1.26,1.78,1.78,0,0,1-2.49,0,1.73,1.73,0,0,1-.49-1.26v-12A1.74,1.74,0,0,1,465,658a1.79,1.79,0,0,1,2.49,0,1.74,1.74,0,0,1,.49,1.26v0.49a7,7,0,0,1,2-1.8,5.3,5.3,0,0,1,2.77-.75Q475.76,657.18,476.89,658.93Z" transform="translate(-330.54 -652.4)"/><path class="cls-1" d="M496.56,657.39a1.73,1.73,0,0,1,.49,1.27v12.89a6.2,6.2,0,0,1-2.19,5.23,8.79,8.79,0,0,1-5.55,1.69,13.64,13.64,0,0,1-2.39-.29,10.5,10.5,0,0,1-2.16-.58,1.9,1.9,0,0,1-1.42-1.68,1.48,1.48,0,0,1,.09-0.46,1.79,1.79,0,0,1,.59-1,1.44,1.44,0,0,1,.91-0.33,1.73,1.73,0,0,1,.55.09l1.43,0.54a6.74,6.74,0,0,0,2.39.51,5,5,0,0,0,3.2-.85,2.93,2.93,0,0,0,1.06-2.42v-1.39a5.77,5.77,0,0,1-1.93,1.62,5.57,5.57,0,0,1-2.77.72,6.89,6.89,0,0,1-3.69-1,7.2,7.2,0,0,1-2.62-2.85,8.79,8.79,0,0,1-1-4.14,9,9,0,0,1,.94-4.16,7.15,7.15,0,0,1,2.58-2.87,6.7,6.7,0,0,1,3.64-1,6.31,6.31,0,0,1,2.75.61,6.47,6.47,0,0,1,2.06,1.48v-0.32a1.74,1.74,0,0,1,.49-1.26,1.67,1.67,0,0,1,1.25-.51A1.69,1.69,0,0,1,496.56,657.39Zm-4.07,11a5,5,0,0,0,1.23-3.46,5,5,0,0,0-1.23-3.48,4,4,0,0,0-3.17-1.39,4,4,0,0,0-3.16,1.39,5.09,5.09,0,0,0-1.22,3.48,5,5,0,0,0,1.22,3.46,4,4,0,0,0,3.16,1.38A4.06,4.06,0,0,0,492.48,668.41Z" transform="translate(-330.54 -652.4)"/><path class="cls-1" d="M503.51,653.36v5.15h-1v-5.15h-1.85v-0.94h4.73v0.94h-1.85Z" transform="translate(-330.54 -652.4)"/><path class="cls-1" d="M507.5,658.51h-1v-6.09h1.61l1.84,3.83,1.84-3.83h1.6v6.09h-1v-4.76L510.2,658h-0.58l-2.12-4.23v4.76h0Z" transform="translate(-330.54 -652.4)"/></svg>