<?xml version="1.0" encoding="utf-8"?>
<!-- Generator: Adobe Illustrator 15.0.0, SVG Export Plug-In . SVG Version: 6.00 Build 0)  -->
<!DOCTYPE svg PUBLIC "-//W3C//DTD SVG 1.1//EN" "http://www.w3.org/Graphics/SVG/1.1/DTD/svg11.dtd">
<svg version="1.1" id="Layer_1" xmlns="http://www.w3.org/2000/svg" xmlns:xlink="http://www.w3.org/1999/xlink" x="0px" y="0px"
	 width="50px" height="50px" viewBox="0 0 50 50" enable-background="new 0 0 50 50" xml:space="preserve">
<g>
	<defs>
		<rect id="SVGID_1_" x="-51" y="3683" width="168.988" height="168.988"/>
	</defs>
	<clipPath id="SVGID_2_">
		<use xlink:href="#SVGID_1_"  overflow="visible"/>
	</clipPath>
	<g clip-path="url(#SVGID_2_)">
		<defs>
			<rect id="SVGID_3_" x="-695" y="-4470" width="1440" height="8990"/>
		</defs>
		<clipPath id="SVGID_4_">
			<use xlink:href="#SVGID_3_"  overflow="visible"/>
		</clipPath>
		<g clip-path="url(#SVGID_4_)" enable-background="new    ">
			<g>
				<defs>
					<rect id="SVGID_5_" x="-51" y="3682" width="170" height="170"/>
				</defs>
				<clipPath id="SVGID_6_">
					<use xlink:href="#SVGID_5_"  overflow="visible"/>
				</clipPath>
				<g clip-path="url(#SVGID_6_)">
					<defs>
						<path id="SVGID_7_" d="M63.568,3743.148c-2.052,0-4.07,0.136-6.063,0.356l-0.001-0.021h-0.021
							c0.221-1.994,0.356-4.013,0.356-6.063c0-30.563-25.196-55.243-55.949-54.398C-27.751,3683.833-51,3708.899-51,3738.551v95.737
							c0,9.774,7.925,17.7,17.7,17.7h95.735c29.653,0,54.72-23.249,55.531-52.892C118.811,3768.344,94.132,3743.148,63.568,3743.148
							"/>
					</defs>
					<clipPath id="SVGID_8_">
						<use xlink:href="#SVGID_7_"  overflow="visible"/>
					</clipPath>
					<g clip-path="url(#SVGID_8_)">
						<defs>
							<rect id="SVGID_9_" x="-51" y="3683" width="169" height="169"/>
						</defs>
						<clipPath id="SVGID_10_">
							<use xlink:href="#SVGID_9_"  overflow="visible"/>
						</clipPath>
						<rect x="-56" y="3678" clip-path="url(#SVGID_10_)" fill="#43B3E6" width="178.988" height="178.988"/>
					</g>
				</g>
			</g>
		</g>
	</g>
</g>
<g>
	<defs>
		<rect id="SVGID_11_" x="-51" y="3683" width="168.988" height="168.988"/>
	</defs>
	<clipPath id="SVGID_12_">
		<use xlink:href="#SVGID_11_"  overflow="visible"/>
	</clipPath>
	<g clip-path="url(#SVGID_12_)">
		<defs>
			<rect id="SVGID_13_" x="-695" y="-4470" width="1440" height="8990"/>
		</defs>
		<clipPath id="SVGID_14_">
			<use xlink:href="#SVGID_13_"  overflow="visible"/>
		</clipPath>
		<g clip-path="url(#SVGID_14_)" enable-background="new    ">
			<g>
				<defs>
					<rect id="SVGID_15_" x="-51" y="3682" width="170" height="170"/>
				</defs>
				<clipPath id="SVGID_16_">
					<use xlink:href="#SVGID_15_"  overflow="visible"/>
				</clipPath>
				<g clip-path="url(#SVGID_16_)">
					<defs>
						<path id="SVGID_17_" d="M63.568,3743.148c-2.052,0-4.07,0.136-6.063,0.356l-0.001-0.021h-0.021
							c0.221-1.994,0.356-4.013,0.356-6.063c0-30.563-25.196-55.243-55.949-54.398C-27.751,3683.833-51,3708.899-51,3738.551v95.737
							c0,9.774,7.925,17.7,17.7,17.7h95.735c29.653,0,54.72-23.249,55.531-52.892C118.811,3768.344,94.132,3743.148,63.568,3743.148
							"/>
					</defs>
					<clipPath id="SVGID_18_">
						<use xlink:href="#SVGID_17_"  overflow="visible"/>
					</clipPath>
					<g clip-path="url(#SVGID_18_)">
						<defs>
							<rect id="SVGID_19_" x="-51" y="3683" width="169" height="169"/>
						</defs>
						<clipPath id="SVGID_20_">
							<use xlink:href="#SVGID_19_"  overflow="visible"/>
						</clipPath>
						<rect x="-56" y="3678" clip-path="url(#SVGID_20_)" fill="#43B3E6" width="178.988" height="178.988"/>
					</g>
				</g>
			</g>
		</g>
	</g>
</g>
<g>
	<defs>
		<rect id="SVGID_21_" x="-51" y="3683" width="168.988" height="168.988"/>
	</defs>
	<clipPath id="SVGID_22_">
		<use xlink:href="#SVGID_21_"  overflow="visible"/>
	</clipPath>
	<g clip-path="url(#SVGID_22_)">
		<defs>
			<rect id="SVGID_23_" x="-695" y="-4470" width="1440" height="8990"/>
		</defs>
		<clipPath id="SVGID_24_">
			<use xlink:href="#SVGID_23_"  overflow="visible"/>
		</clipPath>
		<g clip-path="url(#SVGID_24_)" enable-background="new    ">
			<g>
				<defs>
					<rect id="SVGID_25_" x="-51" y="3682" width="170" height="170"/>
				</defs>
				<clipPath id="SVGID_26_">
					<use xlink:href="#SVGID_25_"  overflow="visible"/>
				</clipPath>
				<g clip-path="url(#SVGID_26_)">
					<defs>
						<path id="SVGID_27_" d="M63.568,3743.148c-2.052,0-4.07,0.136-6.063,0.356l-0.001-0.021h-0.021
							c0.221-1.994,0.356-4.013,0.356-6.063c0-30.563-25.196-55.243-55.949-54.398C-27.751,3683.833-51,3708.899-51,3738.551v95.737
							c0,9.774,7.925,17.7,17.7,17.7h95.735c29.653,0,54.72-23.249,55.531-52.892C118.811,3768.344,94.132,3743.148,63.568,3743.148
							"/>
					</defs>
					<clipPath id="SVGID_28_">
						<use xlink:href="#SVGID_27_"  overflow="visible"/>
					</clipPath>
					<g clip-path="url(#SVGID_28_)">
						<defs>
							<rect id="SVGID_29_" x="-51" y="3683" width="169" height="169"/>
						</defs>
						<clipPath id="SVGID_30_">
							<use xlink:href="#SVGID_29_"  overflow="visible"/>
						</clipPath>
						<rect x="-56" y="3678" clip-path="url(#SVGID_30_)" fill="#43B3E6" width="178.988" height="178.988"/>
					</g>
				</g>
			</g>
		</g>
	</g>
</g>
<g enable-background="new    ">
	<g>
		<defs>
			<rect id="SVGID_31_" x="0.25" y="-0.25" width="50" height="50"/>
		</defs>
		<clipPath id="SVGID_32_">
			<use xlink:href="#SVGID_31_"  overflow="visible"/>
		</clipPath>
		<g clip-path="url(#SVGID_32_)">
			<defs>
				<path id="SVGID_33_" d="M33.946,17.735c-0.604,0-1.197,0.04-1.783,0.104v-0.006h-0.006c0.064-0.587,0.104-1.18,0.104-1.784
					c0-8.989-7.411-16.248-16.456-15.999C7.088,0.289,0.25,7.662,0.25,16.383V44.54c0,2.875,2.331,5.207,5.206,5.207h28.157
					c8.722,0,16.094-6.838,16.333-15.557C50.194,25.146,42.936,17.735,33.946,17.735"/>
			</defs>
			<clipPath id="SVGID_34_">
				<use xlink:href="#SVGID_33_"  overflow="visible"/>
			</clipPath>
			<g clip-path="url(#SVGID_34_)">
				<defs>
					<rect id="SVGID_35_" x="0.25" y="0.044" width="49.706" height="49.706"/>
				</defs>
				<clipPath id="SVGID_36_">
					<use xlink:href="#SVGID_35_"  overflow="visible"/>
				</clipPath>
				<rect x="-1.22" y="-1.426" clip-path="url(#SVGID_36_)" fill="#FFFFFF" width="52.643" height="52.643"/>
			</g>
		</g>
	</g>
</g>
</svg>
