<?xml version="1.0" encoding="UTF-8"?>
<svg width="169px" height="169px" viewBox="0 0 169 169" version="1.1" xmlns="http://www.w3.org/2000/svg" xmlns:xlink="http://www.w3.org/1999/xlink">
    <defs>
        <polygon id="path-1" points="0 168.98814 0 0 168.98814 0 168.98814 168.98814"></polygon>
    </defs>
    <g id="Page-1" stroke="none" stroke-width="1" fill="none" fill-rule="evenodd">
        <g id="1.-Home-Page" transform="translate(-644.000000, -8153.000000)">
            <g id="Coming-soon" transform="translate(-70.000000, 7749.000000)">
                <g id="Page-1" transform="translate(714.000000, 404.000000)">
                    <mask id="mask-2" fill="white">
                        <use xlink:href="#path-1"></use>
                    </mask>
                    <g id="Clip-2"></g>
                    <path d="M114.56851,60.1478412 C112.51679,60.1478412 110.497685,60.2842272 108.505264,60.5051132 L108.503782,60.4828763 L108.483027,60.4828763 C108.703913,58.4889728 108.840299,56.47135 108.840299,54.4196307 C108.840299,23.8558325 83.6444746,-0.822614912 52.8909219,0.0209026316 C23.2492114,0.833288596 -0.000148245614,25.898657 -0.000148245614,55.5507447 L-0.000148245614,151.287762 C-0.000148245614,161.063078 7.92506228,168.988289 17.7003781,168.988289 L113.435913,168.988289 C143.089483,168.988289 168.154852,145.738929 168.967238,116.097218 C169.810755,85.3436658 145.132308,60.1478412 114.56851,60.1478412" id="Fill-1" fill="#29B6F6" mask="url(#mask-2)"></path>
                </g>
            </g>
        </g>
    </g>
</svg>