<?xml version="1.0" standalone="no"?>
<!DOCTYPE svg PUBLIC "-//W3C//DTD SVG 20010904//EN"
 "http://www.w3.org/TR/2001/REC-SVG-20010904/DTD/svg10.dtd">
<svg version="1.0" xmlns="http://www.w3.org/2000/svg"
 width="260.000000pt" height="260.000000pt" viewBox="0 0 260.000000 260.000000"
 preserveAspectRatio="xMidYMid meet">
<metadata>
Created by potrace 1.11, written by Peter Selinger 2001-2013
</metadata>
<g transform="translate(0.000000,260.000000) scale(0.100000,-0.100000)"
fill="#000000" stroke="none">
<path d="M680 2585 c-313 -63 -559 -297 -652 -620 l-23 -80 0 -845 0 -845 23
-43 c32 -60 87 -109 150 -132 53 -20 72 -21 881 -17 454 2 837 6 850 10 211
58 325 120 449 244 102 104 173 225 214 370 31 108 30 312 -1 427 -97 362
-427 616 -802 618 l-99 0 2 72 c8 277 -119 532 -347 698 -88 64 -227 125 -325
143 -72 13 -256 13 -320 0z"/>
</g>
</svg>
